<?xml version="1.0" encoding="UTF-8"?>
<!-- Created with Inkscape (http://www.inkscape.org/) -->
<svg width="648.42" height="277.27" version="1.1" viewBox="0 0 171.56 73.362" xmlns="http://www.w3.org/2000/svg">
  <g transform="translate(-65.786 -146.76)">
    <g transform="translate(-71.594 112.72)">
      <path
        d="m176.89 107.22c7.4e-4 -0.10016-0.3508-2.6519-0.78134-5.6703-0.43054-3.0184-0.78264-5.5096-0.78242-5.5361 1e-4 -0.0268-0.61341-0.10377-1.3636-0.17182-1.8401-0.16651-4.7885-0.8677-6.8946-1.6396-8.9202-3.2688-15.793-10.803-18.292-20.051-0.16864-0.62427-0.34423-0.95419-0.50837-0.95551-0.13781-1e-3 -1.4556 0.17247-2.9283 0.38593-5.9056 0.85562-8.0444 1.1213-7.9611 0.98898 0.048-0.0764 0.14892-0.13823 0.22416-0.13759 0.0751 1e-3 2.4274-1.0942 5.227-2.4328l5.0901-2.4339-0.0912-1.9516c-0.38304-8.1956 2.9986-16.427 9.1872-22.364l1.5093-1.4479-2.8675-4.7678c-1.5771-2.6223-2.9097-4.8426-2.9614-4.934-0.0517-0.0914 0.0128-0.0825 0.14333 0.0191 0.13036 0.1025 2.2282 1.7891 4.6618 3.7478l4.4248 3.5613 0.51245-0.29204c2.5612-1.4594 6.2823-2.8773 8.8933-3.3888 6.8437-1.3405 14.036-0.26424 20.028 2.9974 1.3142 0.71528 1.4568 0.75858 1.7331 0.52632 0.16566-0.13929 2.0995-1.6773 4.2977-3.418 2.1982-1.7407 4.1387-3.282 4.3124-3.4251 0.3012-0.24822 0.30609-0.24215 0.10569 0.13184-0.11547 0.2157-1.435 2.4088-2.9322 4.8735l-2.7221 4.4813 1.7505 1.7353c3.6316 3.6001 6.1572 7.8251 7.5805 12.681 0.91345 3.1166 1.103 4.5847 1.1026 8.538l-3.8e-4 3.5436 5.1756 2.661c3.0251 1.5553 4.9352 2.6219 4.5972 2.567-0.31809-0.0517-2.809-0.47027-5.5353-0.93022-4.4303-0.7474-4.9689-0.80814-5.0694-0.57154-0.0619 0.14567-0.35753 1.0073-0.65746 1.9149-3.5155 10.644-13.401 18.628-24.475 19.769-1.6262 0.16757-1.8414 0.22686-1.9087 0.52668-0.0421 0.18565-0.43929 2.7176-0.88346 5.6261-0.70272 4.6016-0.94674 5.9612-0.9409 5.2427zm4.6483-14.735c12.866-2.0046 22.461-13.716 21.943-26.784-0.48445-12.222-8.8407-22.144-20.924-24.846-1.4818-0.33134-2.2278-0.39178-5.1259-0.41528-2.8779-0.0234-3.6478 0.0257-5.0822 0.32403-8.1667 1.6982-14.831 6.7066-18.447 13.863-1.6942 3.353-2.4225 5.8691-2.8113 9.7135-0.53339 5.2732 0.87456 11.291 3.7291 15.94 1.6487 2.685 4.3807 5.648 6.9231 7.5087 1.6655 1.2189 5.1145 3.0228 7.0495 3.6869 3.9139 1.3434 8.3457 1.694 12.746 1.0084z"
        stroke-width=".26458" />
      <text transform="scale(1.0246 .97602)" x="158.68559" y="86.47287" font-family="Bangers" font-size="51.905px"
        stroke-width=".26458" xml:space="preserve">
        <tspan x="158.68559" y="86.47287" stroke-width=".26458">A</tspan>
      </text>
    </g>
    <text transform="scale(1.0069 .99319)" x="90.370941" y="198.46658" font-size="51.905px" stroke-width=".26458"
      xml:space="preserve">
      <tspan x="90.370941" y="198.46658" font-family="Bangers" font-size="51.905px" stroke-width=".26458">Alterna
      </tspan>
    </text>
  </g>
</svg>