<svg xmlns="http://www.w3.org/2000/svg">
  <defs>
    <symbol id="cart-icon" viewBox="0 0 20 20">
      <rect x="0" fill="none" width="20" height="20" />
      <path
        d="M6 13h9c.55 0 1 .45 1 1s-.45 1-1 1H5c-.55 0-1-.45-1-1V4H2c-.55 0-1-.45-1-1s.45-1 1-1h3c.55 0 1 .45 1 1v2h13l-4 7H6v1zm-.5 3c.83 0 1.5.67 1.5 1.5S6.33 19 5.5 19 4 18.33 4 17.5 4.67 16 5.5 16zm9 0c.83 0 1.5.67 1.5 1.5s-.67 1.5-1.5 1.5-1.5-.67-1.5-1.5.67-1.5 1.5-1.5z" />
    </symbol>
    <symbol id="user-icon" viewBox="0 0 32 32">
      <path
        d="M4 28q0 0.832 0.576 1.44t1.44 0.576h20q0.8 0 1.408-0.576t0.576-1.44q0-1.44-0.672-2.912t-1.76-2.624-2.496-2.144-2.88-1.504q1.76-1.088 2.784-2.912t1.024-3.904v-1.984q0-3.328-2.336-5.664t-5.664-2.336-5.664 2.336-2.336 5.664v1.984q0 2.112 1.024 3.904t2.784 2.912q-1.504 0.544-2.88 1.504t-2.496 2.144-1.76 2.624-0.672 2.912z" />
    </symbol>
  </defs>
</svg>