<svg xmlns="http://www.w3.org/2000/svg">
  <defs>
    <symbol id="cart-icon" viewBox="0 0 20 20">
      <rect x="0" fill="none" width="20" height="20" />
      <path
        d="M6 13h9c.55 0 1 .45 1 1s-.45 1-1 1H5c-.55 0-1-.45-1-1V4H2c-.55 0-1-.45-1-1s.45-1 1-1h3c.55 0 1 .45 1 1v2h13l-4 7H6v1zm-.5 3c.83 0 1.5.67 1.5 1.5S6.33 19 5.5 19 4 18.33 4 17.5 4.67 16 5.5 16zm9 0c.83 0 1.5.67 1.5 1.5s-.67 1.5-1.5 1.5-1.5-.67-1.5-1.5.67-1.5 1.5-1.5z" />
    </symbol>
    <symbol id="user-icon" viewBox="0 0 32 32">
      <path
        d="M4 28q0 0.832 0.576 1.44t1.44 0.576h20q0.8 0 1.408-0.576t0.576-1.44q0-1.44-0.672-2.912t-1.76-2.624-2.496-2.144-2.88-1.504q1.76-1.088 2.784-2.912t1.024-3.904v-1.984q0-3.328-2.336-5.664t-5.664-2.336-5.664 2.336-2.336 5.664v1.984q0 2.112 1.024 3.904t2.784 2.912q-1.504 0.544-2.88 1.504t-2.496 2.144-1.76 2.624-0.672 2.912z" />
    </symbol>
    <symbol id="icon-update" viewBox="0 0 24 24">
      <path
        d="M21.433 8.666c-0.921-2.603-2.812-4.587-5.12-5.689s-5.040-1.323-7.643-0.402c-1.472 0.521-2.752 1.354-3.744 2.364l-2.926 2.75v-3.689c0-0.552-0.448-1-1-1s-1 0.448-1 1v5.998c0 0.015 0 0.030 0.001 0.044 0.005 0.115 0.029 0.225 0.069 0.326 0.040 0.102 0.098 0.198 0.173 0.285 0.012 0.013 0.024 0.027 0.036 0.039 0.091 0.095 0.201 0.172 0.324 0.225 0.119 0.051 0.249 0.080 0.386 0.082 0.004 0 0.007 0 0.011 0h6c0.552 0 1-0.448 1-1s-0.448-0.999-1-0.999h-3.476l2.83-2.659c0.777-0.792 1.797-1.46 2.983-1.88 2.083-0.737 4.265-0.561 6.114 0.322s3.359 2.468 4.096 4.551c0.184 0.521 0.756 0.793 1.276 0.609s0.793-0.756 0.609-1.276zM20.475 15l-2.8 2.631c-1.584 1.585-3.63 2.366-5.679 2.366s-4.095-0.78-5.657-2.342c-0.89-0.89-1.523-1.931-1.883-2.981-0.18-0.522-0.748-0.8-1.271-0.621s-0.8 0.748-0.621 1.271c0.46 1.339 1.257 2.642 2.361 3.745 1.953 1.952 4.514 2.928 7.072 2.927s5.118-0.978 7.048-2.909l2.955-2.775v3.688c0 0.552 0.448 1 1 1s1-0.448 1-1v-5.998c0-0.015 0-0.030-0.001-0.044-0.005-0.115-0.029-0.225-0.069-0.326-0.040-0.102-0.098-0.198-0.173-0.285-0.012-0.013-0.024-0.027-0.036-0.039-0.091-0.095-0.201-0.172-0.324-0.225-0.119-0.051-0.249-0.080-0.386-0.082-0.004 0-0.007 0-0.011 0h-6c-0.552 0-1 0.448-1 1s0.448 1 1 1z">
      </path>
    </symbol>
  </defs>
</svg>